<svg width="800" height="600" xmlns="http://www.w3.org/2000/svg">

 <g>
  <title>Layer 1</title>
  <g stroke="null">
   <path stroke="null" fill="#334D5C" d="m121.58101,142.84802c-58.86287,0 -106.58101,48.1602 -106.58101,107.5786c0,59.40929 47.71771,107.57339 106.58101,107.57339c58.86029,0 106.578,-48.1641 106.578,-107.57339c0,-59.41883 -47.71771,-107.5786 -106.578,-107.5786z"/>
   <circle stroke="null" fill="#E2A120" r="49.83573" cy="250.42402" cx="121.57972"/>
   <g stroke="null">
    <path stroke="null" fill="#EAB32A" d="m160.84555,219.44642c-11.51678,0.03296 -24.64592,2.45051 -40.59163,-3.65473c-10.59697,-4.05715 -22.22802,-4.55844 -30.3143,-4.23234c-2.78693,2.31391 -5.32082,4.92747 -7.55312,7.79167c9.84427,0.59539 22.69717,2.346 30.77915,7.49809c8.76378,5.58703 37.66464,3.50903 53.38609,1.87637c-1.57026,-3.30912 -3.48764,-6.41832 -5.70619,-9.27906z"/>
    <path stroke="null" fill="#EAB32A" d="m153.37234,283.89462c-12.93323,-0.70814 -27.53381,4.52114 -46.52423,-1.76882c-9.0164,-2.98605 -18.64415,-3.44832 -26.27245,-3.11051c2.79123,4.07059 6.16116,7.70581 9.9912,10.78336c3.56154,0.8881 6.89409,2.08625 9.69863,3.69896c7.77695,4.47171 30.29282,2.54504 46.36055,0.42107c4.30177,-2.52943 8.19325,-5.69024 11.55158,-9.35668c-1.30647,-0.3248 -2.88489,-0.56243 -4.80528,-0.66737z"/>
    <path stroke="null" fill="#EAB32A" d="m171.3944,248.99951c-12.26474,-2.2493 -29.14273,-4.34725 -45.13613,-2.99689c-21.12562,1.78443 -38.32153,-1.87767 -53.66019,-4.8802c-0.5585,3.01467 -0.85365,6.12301 -0.85365,9.30117c0,0.41326 0.00559,0.82479 0.01547,1.23588c23.58991,5.05235 52.44437,10.10124 63.57621,7.42828c9.72742,-2.33603 23.08296,-2.16127 35.526,-1.15479c0.36346,-2.44964 0.55335,-4.95695 0.55335,-7.50893c0,-0.47657 -0.00816,-0.95098 -0.02105,-1.42451z"/>
   </g>
   <path stroke="null" fill="#A8843B" d="m166.04522,227.68994c2.22843,4.43138 3.8236,9.24133 4.67038,14.30799c8.14342,2.41105 12.99595,5.43656 12.99595,8.72313c0,3.30088 -4.89464,6.3381 -13.1025,8.75435c-2.98499,0.87856 -6.40432,1.67602 -10.19141,2.37289c-10.63821,1.95746 -24.14068,3.12872 -38.83793,3.12916c-14.69724,0 -28.19972,-1.1717 -38.83793,-3.12916c-3.78666,-0.69686 -7.20642,-1.49433 -10.19141,-2.37289c-8.20743,-2.41625 -13.1025,-5.45347 -13.1025,-8.75435c0,-3.28657 4.85211,-6.31208 12.99595,-8.72313c0.84678,-5.06666 2.44195,-9.87618 4.67038,-14.30799c-29.05294,4.37978 -48.77457,12.91817 -48.77457,22.73408c0,9.8159 19.72163,18.3543 48.775,22.73408c13.21678,1.99258 28.36426,3.12439 44.4655,3.12439s31.24872,-1.1318 44.4655,-3.12439c29.05337,-4.37978 48.775,-12.91817 48.775,-22.73408s-19.72206,-18.3543 -48.77543,-22.73408z"/>
   <path stroke="null" fill="#BC934B" d="m168.14133,231.32082c0.44981,1.18904 0.85666,2.3989 1.21754,3.62914c14.45795,3.62004 23.54996,8.85712 23.54996,14.68439c0,7.50937 -15.89717,13.21218 -38.12347,16.5625c-10.11107,1.52425 -21.69916,2.39023 -34.01632,2.39023s-23.90568,-0.86598 -34.01632,-2.39023c-22.22588,-3.35075 -36.50295,-9.05313 -36.50295,-16.5625c0,-5.82727 9.09244,-11.06436 23.54996,-14.68439c0.36088,-1.23024 0.76816,-2.44053 1.21754,-3.62958c-20.45069,4.03937 -38.88733,10.66888 -38.88733,18.16263c0,8.45904 22.09269,17.31226 47.12999,21.08667c11.38961,1.71722 24.44357,2.69248 38.31895,2.69248s26.92934,-0.97569 38.31895,-2.69248c25.0373,-3.77441 47.12999,-12.62763 47.12999,-21.08667c0.00086,-7.49332 -18.43535,-14.1224 -38.88647,-18.1622z"/>
   <g stroke="null">
    <path stroke="null" fill="#EAB32A" d="m169.78977,237.64244c-9.96199,1.0299 -54.98599,4.58836 -92.4775,-10.34061c-0.48418,0.9423 -0.93829,1.90238 -1.36404,2.87808c9.96586,3.65299 44.61415,14.54563 94.56501,10.68752c-0.20751,-1.08757 -0.44766,-2.16344 -0.72348,-3.22499z"/>
    <path stroke="null" fill="#EAB32A" d="m150.20347,209.24501c-12.71799,-0.50953 -28.91117,-2.10359 -45.24483,-6.25354c-1.38423,0.49435 -2.74097,1.04681 -4.06634,1.65781c13.10035,3.45525 31.16709,6.86237 53.23573,7.68326c-1.25449,-1.09321 -2.56482,-2.12354 -3.92456,-3.08753z"/>
   </g>
  </g>
  <text font-style="normal" font-weight="bold" transform="matrix(2.70332 0 0 4.05017 -873.125 -790.961)" stroke="#000" xml:space="preserve" text-anchor="start" font-family="Noto Sans JP" font-size="40" stroke-width="0" id="svg_4" y="269.46255" x="410.40919" fill="#000000">AstroVerse</text>
 </g>
</svg>